<?xml version="1.0" encoding="UTF-8" standalone="no"?>
<svg
   xmlns:dc="http://purl.org/dc/elements/1.1/"
   xmlns:cc="http://creativecommons.org/ns#"
   xmlns:rdf="http://www.w3.org/1999/02/22-rdf-syntax-ns#"
   xmlns:svg="http://www.w3.org/2000/svg"
   xmlns="http://www.w3.org/2000/svg"
   xmlns:sodipodi="http://sodipodi.sourceforge.net/DTD/sodipodi-0.dtd"
   xmlns:inkscape="http://www.inkscape.org/namespaces/inkscape"
   version="1.1"
   id="svg2"
   width="1011.2"
   height="1018.6667"
   viewBox="0 0 1011.2 1018.6667"
   sodipodi:docname="sharko.svg"
   inkscape:version="1.0.2 (e86c870879, 2021-01-15)">
  <metadata
     id="metadata8">
    <rdf:RDF>
      <cc:Work
         rdf:about="">
        <dc:format>image/svg+xml</dc:format>
        <dc:type
           rdf:resource="http://purl.org/dc/dcmitype/StillImage" />
        <dc:title></dc:title>
      </cc:Work>
    </rdf:RDF>
  </metadata>
  <defs
     id="defs6" />
  <sodipodi:namedview
     pagecolor="#ffffff"
     bordercolor="#666666"
     borderopacity="1"
     objecttolerance="10"
     gridtolerance="10"
     guidetolerance="10"
     inkscape:pageopacity="0"
     inkscape:pageshadow="2"
     inkscape:window-width="2518"
     inkscape:window-height="1386"
     id="namedview4"
     showgrid="false"
     inkscape:zoom="0.98952878"
     inkscape:cx="505.60001"
     inkscape:cy="509.33334"
     inkscape:window-x="42"
     inkscape:window-y="54"
     inkscape:window-maximized="0"
     inkscape:current-layer="g10" />
  <g
     inkscape:groupmode="layer"
     inkscape:label="Image"
     id="g10">
    <path
       style="fill:#020202;stroke:none;stroke-width:1.06667"
       d="m 446.8,488.47726 c 7.904,2.52374 13.55627,9.07414 19.1584,14.93334 14.28053,14.93546 26.45547,33.3312 32.19093,53.33333 2.6208,9.14347 3.72054,18.3296 4.88,27.73334 0.43307,3.5072 -0.0416,8.09706 3.7472,9.8752 8.9536,4.19946 24.03947,2.97813 33.89014,4.1568 22.1216,2.64746 44.1472,5.8784 66.13333,9.52 68.62933,11.36746 136.04053,30.33813 198.4,61.51787 19.48373,9.74186 44.73173,19.6128 60.7488,34.58986 7.03893,6.5824 1.14133,10.60907 -5.28213,14.52267 -10.96747,6.6816 -22.528,13.088 -34.13334,18.58453 -30.21333,14.3104 -61.7056,26.00107 -93.86666,35.11574 -18.1504,5.14453 -37.5296,10.35307 -56.53334,9.45067 -0.0629,-17.72801 -14.33386,-2.50667 -21.6608,-10.39574 -2.07573,-2.23466 -0.79466,-7.09333 -0.7392,-9.87093 l -23.46666,1.06666 c 1.6352,-14.22186 -11.8976,-6.09173 -20.0128,-10.60053 -3.16587,-1.75893 -1.51574,-6.5792 -4.8608,-7.776 -4.79147,-1.71413 -10.5504,2.28693 -15.5968,0.9664 -4.95894,-1.29707 -3.4112,-6.74347 -6.80214,-9.53173 -8.3776,-6.89067 -15.92,1.5712 -15.6608,-13.59147 L 546,723.14394 548.13333,711.4106 c -4.5568,0.0939 -10.49173,2.35307 -14.8704,1.184 -3.71306,-0.99093 -3.6736,-5.24053 -6.7968,-6.79253 -5.3472,-2.656 -16.2976,-1.09653 -22.06613,-0.3392 -23.4784,3.08267 -79.7216,8.208 -62.3808,46.48107 2.14933,4.74346 5.47627,8.8288 8.78613,12.8 5.3024,6.36373 11.184,12.39253 17.328,17.952 27.13494,24.5536 55.1904,47.86347 81.06667,73.78133 16.752,16.77867 34.02773,36.86614 38.608,60.80001 9.25333,48.35309 -38.6112,69.09119 -62.07467,102.40002 65.92747,-2.8309 130.6912,-18.8704 190.93334,-45.71843 53.54986,-23.8656 103.6192,-57.90079 145.06666,-99.34826 C 931.0688,805.27514 980.92587,717.721 1002.9056,621.8106 c 7.7184,-33.6832 8.4032,-67.0336 9.2437,-101.33334 2.4032,-98.12693 -19.49013,-193.1328 -71.93597,-277.33334 C 896.56213,173.06392 834.3808,112.22338 763.6,69.75618 710.18987,37.710743 649.46133,14.808449 587.6,6.2048543 480.92373,-8.6316047 372.30187,6.0500383 276.13333,55.68632 140.75947,125.55778 38.827413,258.71619 8.8790083,408.47726 c -6.418767,32.09813 -6.879008,65.53067 -6.879008,98.13334 0,28.11946 -0.256887,56.36907 3.501237,84.26667 C 12.498261,642.8186 31.826667,697.16954 56.16629,743.4106 114.416,854.07621 206.8608,938.14234 323.06667,984.47727 c 7.73653,3.0848 15.56586,5.8997 23.46666,8.5333 30.42987,10.14303 91.8976,33.02083 107.3504,-11.7333 11.84,-34.2891 -10.39466,-70.58559 -33.7504,-93.86559 C 388.0448,855.42661 346.1376,836.20741 310.26667,809.14501 284.82347,789.94927 263.76,765.89167 262.30827,732.74394 258.9984,657.14713 331.968,607.86393 383.86667,566.34393 411.17547,544.49646 440.16,524.24366 446.8,488.47726 M 477.73333,47.18178 c 20.1696,-2.379837 41.68854,-0.16341 61.86667,0.72011 170.64747,7.47232 329.79947,123.34443 393.12107,281.64203 26.7765,66.93974 42.2091,148.09921 27.9989,219.73334 -6.4768,32.65174 -20.4725,70.76054 -58.4533,75.42827 -29.89014,3.67254 -54.97067,-7.49546 -80,-22.5216 C 765.8112,568.2938 730.2208,509.4458 690.6144,458.61059 592.16107,332.24792 474.5952,215.01699 316.66667,169.99939 c -4.71787,-1.344 -15.4688,-5.42614 -19.00907,-0.11627 -4.86613,7.29813 1.17547,26.46293 1.85067,34.8608 2.5984,32.32213 6.49173,64.60907 6.49173,97.06667 0,94.1344 -21.49653,192.00214 -97.06667,255.19574 -31.35893,26.22294 -70.12693,45.984 -112,39.95094 C 57.92875,591.337 49.0912,553.39353 48.93248,520.47726 48.79499,491.9578 47.419627,463.6602 50.18112,435.14393 53.41835,401.71353 63.80587,368.09539 76.24032,337.01059 130.12053,202.31512 243.38027,100.95 382.8,61.19992 414.6336,52.12365 445.29707,51.00898 477.73333,47.18178 Z"
       id="path14" />
  </g>
</svg>
